# xmcd CD database file
#
# Track frame offsets:
#	150
#	22645
#	43902
#	66327
#	95670
#	112485
#	131217
#	151590
#	173217
#	194612
#	208637
#	224097
#
# Disc length: 3315 seconds
#
# Revision: 0
# Processed by: cddbd v1.4PL0 Copyright (c) Steve Scherf et al.
# Submitted via: CDex 1.40Release
#
DISCID=ba0cf10c
DTITLE=LA BLUES BAND DE GRANADA - CUATRO
DYEAR=1900
DGENRE=Blues
TTITLE0=ROCKER MAN
TTITLE1=I WILL FIND OUT
TTITLE2=I'M GOING TO CHICAGO
TTITLE3=THE BLUES IS ALL ABOUT
TTITLE4=OLD MUSIC
TTITLE5=SUMMERTIME OF 69
TTITLE6=TONIGHT
TTITLE7=ANGI
TTITLE8=LA PENSIÓN DEL COJO
TTITLE9=RUN HERE BABY
TTITLE10=RAIN OR SHINE
TTITLE11=LOOSE IN MY MIND
EXTD=ID3G: 0
EXTT0=
EXTT1=
EXTT2=
EXTT3=
EXTT4=
EXTT5=
EXTT6=
EXTT7=
EXTT8=
EXTT9=
EXTT10=
EXTT11=
PLAYORDER=
